<?xml version="1.0" encoding="UTF-8" standalone="no"?>
<!-- Created with Inkscape (http://www.inkscape.org/) -->

<svg
   xmlns:dc="http://purl.org/dc/elements/1.1/"
   xmlns:cc="http://creativecommons.org/ns#"
   xmlns:rdf="http://www.w3.org/1999/02/22-rdf-syntax-ns#"
   xmlns:svg="http://www.w3.org/2000/svg"
   xmlns="http://www.w3.org/2000/svg"
   xmlns:sodipodi="http://sodipodi.sourceforge.net/DTD/sodipodi-0.dtd"
   xmlns:inkscape="http://www.inkscape.org/namespaces/inkscape"
   width="100"
   height="100"
   id="svg2"
   version="1.1"
   inkscape:version="0.48.3.1 r9886"
   sodipodi:docname="Documento nuevo 1">
  <defs
     id="defs4" />
  <sodipodi:namedview
     id="base"
     pagecolor="#ffffff"
     bordercolor="#666666"
     borderopacity="1.0"
     inkscape:pageopacity="0.0"
     inkscape:pageshadow="2"
     inkscape:zoom="1.979899"
     inkscape:cx="93.04405"
     inkscape:cy="108.03301"
     inkscape:document-units="px"
     inkscape:current-layer="layer1"
     showgrid="false"
     inkscape:window-width="1296"
     inkscape:window-height="746"
     inkscape:window-x="62"
     inkscape:window-y="-8"
     inkscape:window-maximized="1" />
  <metadata
     id="metadata7">
    <rdf:RDF>
      <cc:Work
         rdf:about="">
        <dc:format>image/svg+xml</dc:format>
        <dc:type
           rdf:resource="http://purl.org/dc/dcmitype/StillImage" />
        <dc:title></dc:title>
      </cc:Work>
    </rdf:RDF>
  </metadata>
  <g
     inkscape:label="Capa 1"
     inkscape:groupmode="layer"
     id="layer1"
     transform="translate(0,-952.3622)">
    <path
       style="fill:#000080;fill-opacity:1;stroke:#000000;stroke-width:1.13937259;stroke-opacity:1"
       id="path3001"
       d="m 22.426863,1037.3658 c 2.640427,-1.2552 9.962991,-3.9993 -1.74943,1.1598 -0.714317,0.3146 1.332829,-0.7785 1.959867,-1.2144 0.686351,-0.4771 1.316566,-1.0139 1.974848,-1.5208 7.347431,-6.1108 13.504371,-13.1908 19.43694,-20.3643 4.575316,-5.5614 8.916219,-11.255 13.013629,-17.09722 2.750121,-4.0257 5.387751,-8.1053 8.212983,-12.09128 2.644451,-3.67787 5.203296,-7.40448 7.862541,-11.07369 1.343056,-1.92083 2.842812,-3.74384 4.804379,-5.20334 0,0 8.338095,-2.9267 8.338095,-2.9267 l 0,0 c -2.167692,1.29216 -3.760054,3.09259 -5.143885,5.03752 -2.754702,3.62404 -5.257175,7.39672 -7.913534,11.07728 -2.866351,4.01293 -5.581246,8.10285 -8.379954,12.1518 -4.168933,5.91423 -8.620697,11.65253 -13.294624,17.26663 -5.884682,7.0789 -11.985652,14.0265 -18.926755,20.3379 -0.632294,0.5265 -1.235582,1.0816 -1.896881,1.5797 -4.517753,3.4029 -10.077518,5.6092 -15.435166,7.8069 0,0 7.136947,-4.9258 7.136947,-4.9258 z"
       inkscape:connector-curvature="0" />
    <path
       style="fill:#000080;fill-opacity:1;stroke:#000000;stroke-width:1.01137722;stroke-opacity:1"
       id="path3003"
       d="m 17.14173,968.28195 c 1.708824,1.77079 3.327924,3.6232 4.872797,5.54171 3.229865,4.45824 6.6628,8.74982 10.217995,12.94412 5.638138,6.34391 11.195104,12.76019 16.833164,19.10452 4.50426,5.1717 9.561621,9.7916 14.876131,14.0856 3.406454,2.7526 6.948051,5.333 10.588684,7.7573 2.474143,1.6385 5.021194,3.1549 7.560162,4.6864 2.181458,1.2684 4.241098,2.727 6.284272,4.2086 0.686079,0.5677 1.423561,1.0541 2.186347,1.5058 0,0 -6.262434,4.0923 -6.262434,4.0923 l 0,0 c -0.743756,-0.4961 -1.46654,-1.019 -2.16068,-1.5854 -2.002098,-1.4857 -4.035738,-2.9247 -6.179979,-4.195 -2.550566,-1.5222 -5.097554,-3.0506 -7.538225,-4.7511 -3.582455,-2.4977 -7.067386,-5.1419 -10.428624,-7.9381 -5.237537,-4.4079 -10.258137,-9.0893 -14.721132,-14.3128 -5.588048,-6.3988 -11.112329,-12.86051 -16.914602,-19.06195 -3.652625,-4.13853 -7.211955,-8.35582 -10.554768,-12.75771 -1.570549,-1.85399 -3.204616,-3.67 -5.036472,-5.26473 0,0 6.377364,-4.05956 6.377364,-4.05956 z"
       inkscape:connector-curvature="0" />
  </g>
</svg>
